# Blender v2.74 (sub 0) OBJ File: 'geometricTreesPackLight.blend'
# www.blender.org
o Cone.002
v 0.000000 0.144683 -0.030646
v 0.005716 0.144683 -0.030057
v 0.011212 0.144683 -0.028313
v 0.016277 0.144683 -0.025481
v 0.020717 0.144683 -0.021670
v 0.024361 0.144683 -0.017026
v 0.027068 0.144683 -0.011728
v 0.028735 0.144683 -0.005979
v 0.029298 0.144683 -0.000000
v 0.000000 0.190832 0.000000
v 0.028735 0.144683 0.005979
v 0.027068 0.144683 0.011728
v 0.024361 0.144683 0.017026
v 0.020717 0.144683 0.021670
v 0.016277 0.144683 0.025481
v 0.011212 0.144683 0.028313
v 0.005716 0.144683 0.030057
v -0.000000 0.144683 0.030646
v -0.005716 0.144683 0.030057
v -0.011212 0.144683 0.028313
v -0.016277 0.144683 0.025481
v -0.020717 0.144683 0.021670
v -0.024361 0.144683 0.017026
v -0.027068 0.144683 0.011728
v -0.028735 0.144683 0.005979
v -0.029298 0.144683 -0.000000
v -0.028735 0.144683 -0.005979
v -0.027068 0.144683 -0.011728
v -0.024361 0.144683 -0.017026
v -0.020717 0.144683 -0.021670
v -0.016277 0.144683 -0.025481
v -0.011212 0.144683 -0.028313
v -0.005716 0.144683 -0.030057
vn -0.252600 0.549800 -0.796200
vn 0.085500 0.551200 -0.830000
vn -0.408400 0.547400 -0.730500
vn -0.546400 0.544200 -0.636600
vn -0.661700 0.540900 -0.519200
vn -0.750700 0.537800 -0.383600
vn -0.811100 0.535500 -0.235200
vn -0.841600 0.534300 -0.079200
vn -0.841600 0.534300 0.079200
vn -0.811100 0.535500 0.235200
vn -0.750700 0.537800 0.383600
vn -0.661700 0.540900 0.519200
vn -0.546400 0.544200 0.636600
vn -0.408400 0.547400 0.730500
vn -0.252600 0.549800 0.796200
vn -0.085500 0.551200 0.830000
vn 0.085500 0.551200 0.830000
vn 0.252600 0.549800 0.796200
vn 0.408400 0.547400 0.730500
vn 0.546400 0.544200 0.636600
vn 0.661700 0.540900 0.519200
vn 0.750700 0.537800 0.383600
vn 0.811100 0.535500 0.235200
vn 0.841600 0.534300 0.079200
vn 0.841600 0.534300 -0.079200
vn 0.811100 0.535500 -0.235200
vn 0.750700 0.537800 -0.383600
vn 0.661700 0.540900 -0.519200
vn 0.546400 0.544200 -0.636600
vn 0.408400 0.547400 -0.730500
vn -0.085500 0.551200 -0.830000
vn 0.252600 0.549800 -0.796200
vn 0.000000 -1.000000 -0.000000
s off
f 32//1 10//1 33//1
f 1//2 10//2 2//2
f 31//3 10//3 32//3
f 30//4 10//4 31//4
f 29//5 10//5 30//5
f 28//6 10//6 29//6
f 27//7 10//7 28//7
f 26//8 10//8 27//8
f 25//9 10//9 26//9
f 24//10 10//10 25//10
f 23//11 10//11 24//11
f 22//12 10//12 23//12
f 21//13 10//13 22//13
f 20//14 10//14 21//14
f 19//15 10//15 20//15
f 18//16 10//16 19//16
f 17//17 10//17 18//17
f 16//18 10//18 17//18
f 15//19 10//19 16//19
f 14//20 10//20 15//20
f 13//21 10//21 14//21
f 12//22 10//22 13//22
f 11//23 10//23 12//23
f 9//24 10//24 11//24
f 8//25 10//25 9//25
f 7//26 10//26 8//26
f 6//27 10//27 7//27
f 5//28 10//28 6//28
f 4//29 10//29 5//29
f 3//30 10//30 4//30
f 33//31 10//31 1//31
f 2//32 10//32 3//32
f 13//33 23//33 12//33
f 2//33 33//33 1//33
f 4//33 31//33 32//33
f 5//33 29//33 30//33
f 7//33 27//33 28//33
f 9//33 25//33 26//33
f 12//33 23//33 24//33
f 14//33 21//33 22//33
f 16//33 19//33 20//33
f 19//33 17//33 18//33
f 20//33 15//33 16//33
f 22//33 13//33 14//33
f 24//33 11//33 12//33
f 26//33 8//33 9//33
f 28//33 6//33 7//33
f 31//33 4//33 5//33
f 32//33 2//33 3//33
f 2//33 32//33 33//33
f 5//33 6//33 29//33
f 9//33 11//33 25//33
f 14//33 15//33 21//33
f 19//33 16//33 17//33
f 22//33 23//33 13//33
f 26//33 27//33 8//33
f 32//33 3//33 4//33
f 5//33 30//33 31//33
f 25//33 11//33 24//33
f 20//33 21//33 15//33
f 8//33 27//33 7//33
f 29//33 6//33 28//33
o Cone.001
v 0.000000 0.079302 -0.058589
v 0.010928 0.079302 -0.057463
v 0.021435 0.079302 -0.054129
v 0.031119 0.079302 -0.048715
v 0.039607 0.079302 -0.041429
v 0.046573 0.079302 -0.032550
v 0.051749 0.079302 -0.022421
v 0.054936 0.079302 -0.011430
v 0.056013 0.079302 -0.000000
v 0.000000 0.167530 0.000000
v 0.054936 0.079302 0.011430
v 0.051749 0.079302 0.022421
v 0.046573 0.079302 0.032550
v 0.039607 0.079302 0.041429
v 0.031119 0.079302 0.048715
v 0.021435 0.079302 0.054129
v 0.010928 0.079302 0.057463
v -0.000000 0.079302 0.058589
v -0.010928 0.079302 0.057463
v -0.021435 0.079302 0.054129
v -0.031119 0.079302 0.048715
v -0.039607 0.079302 0.041429
v -0.046573 0.079302 0.032550
v -0.051749 0.079302 0.022421
v -0.054936 0.079302 0.011430
v -0.056013 0.079302 -0.000000
v -0.054936 0.079302 -0.011430
v -0.051749 0.079302 -0.022421
v -0.046573 0.079302 -0.032550
v -0.039607 0.079302 -0.041429
v -0.031119 0.079302 -0.048715
v -0.021435 0.079302 -0.054129
v -0.010927 0.079302 -0.057463
vn -0.252600 0.549800 -0.796200
vn 0.085500 0.551200 -0.830000
vn -0.408400 0.547400 -0.730500
vn -0.546400 0.544200 -0.636600
vn -0.661700 0.540900 -0.519200
vn -0.750700 0.537800 -0.383600
vn -0.811100 0.535500 -0.235200
vn -0.841600 0.534300 -0.079200
vn -0.841600 0.534300 0.079200
vn -0.811100 0.535500 0.235200
vn -0.750700 0.537800 0.383600
vn -0.661700 0.540900 0.519200
vn -0.546400 0.544200 0.636600
vn -0.408400 0.547400 0.730500
vn -0.252600 0.549800 0.796200
vn -0.085500 0.551200 0.830000
vn 0.085500 0.551200 0.830000
vn 0.252600 0.549800 0.796200
vn 0.408400 0.547400 0.730500
vn 0.546400 0.544200 0.636600
vn 0.661700 0.540900 0.519200
vn 0.750700 0.537800 0.383600
vn 0.811100 0.535500 0.235200
vn 0.841600 0.534300 0.079200
vn 0.841600 0.534300 -0.079200
vn 0.811100 0.535500 -0.235200
vn 0.750700 0.537800 -0.383600
vn 0.661700 0.540900 -0.519200
vn 0.546400 0.544200 -0.636600
vn 0.408400 0.547400 -0.730500
vn -0.085500 0.551200 -0.830000
vn 0.252600 0.549800 -0.796200
vn 0.000000 -1.000000 0.000000
s off
f 65//34 43//34 66//34
f 34//35 43//35 35//35
f 64//36 43//36 65//36
f 63//37 43//37 64//37
f 62//38 43//38 63//38
f 61//39 43//39 62//39
f 60//40 43//40 61//40
f 59//41 43//41 60//41
f 58//42 43//42 59//42
f 57//43 43//43 58//43
f 56//44 43//44 57//44
f 55//45 43//45 56//45
f 54//46 43//46 55//46
f 53//47 43//47 54//47
f 52//48 43//48 53//48
f 51//49 43//49 52//49
f 50//50 43//50 51//50
f 49//51 43//51 50//51
f 48//52 43//52 49//52
f 47//53 43//53 48//53
f 46//54 43//54 47//54
f 45//55 43//55 46//55
f 44//56 43//56 45//56
f 42//57 43//57 44//57
f 41//58 43//58 42//58
f 40//59 43//59 41//59
f 39//60 43//60 40//60
f 38//61 43//61 39//61
f 37//62 43//62 38//62
f 36//63 43//63 37//63
f 66//64 43//64 34//64
f 35//65 43//65 36//65
f 46//66 56//66 45//66
f 35//66 66//66 34//66
f 36//66 64//66 65//66
f 39//66 62//66 63//66
f 41//66 60//66 61//66
f 42//66 58//66 59//66
f 45//66 56//66 57//66
f 48//66 54//66 55//66
f 50//66 52//66 53//66
f 52//66 50//66 51//66
f 54//66 48//66 49//66
f 55//66 46//66 47//66
f 57//66 44//66 45//66
f 60//66 41//66 42//66
f 62//66 39//66 40//66
f 63//66 37//66 38//66
f 65//66 35//66 36//66
f 35//66 65//66 66//66
f 40//66 61//66 62//66
f 42//66 44//66 58//66
f 49//66 53//66 54//66
f 53//66 49//66 50//66
f 55//66 56//66 46//66
f 61//66 40//66 41//66
f 63//66 64//66 37//66
f 36//66 37//66 64//66
f 58//66 44//66 57//66
f 55//66 47//66 48//66
f 63//66 38//66 39//66
f 42//66 59//66 60//66
o Cone
v 0.000000 0.003284 -0.088608
v 0.016526 0.003284 -0.086905
v 0.032418 0.003284 -0.081863
v 0.047063 0.003284 -0.073675
v 0.059900 0.003284 -0.062655
v 0.070435 0.003284 -0.049228
v 0.078264 0.003284 -0.033909
v 0.083084 0.003284 -0.017287
v 0.084712 0.003284 -0.000000
v 0.000000 0.136716 0.000000
v 0.083084 0.003284 0.017287
v 0.078264 0.003284 0.033909
v 0.070435 0.003284 0.049228
v 0.059900 0.003284 0.062655
v 0.047063 0.003284 0.073675
v 0.032418 0.003284 0.081863
v 0.016526 0.003284 0.086905
v -0.000000 0.003284 0.088608
v -0.016526 0.003284 0.086905
v -0.032418 0.003284 0.081863
v -0.047063 0.003284 0.073675
v -0.059900 0.003284 0.062655
v -0.070435 0.003284 0.049228
v -0.078264 0.003284 0.033909
v -0.083084 0.003284 0.017286
v -0.084712 0.003284 -0.000000
v -0.083084 0.003284 -0.017287
v -0.078264 0.003284 -0.033909
v -0.070435 0.003284 -0.049228
v -0.059900 0.003284 -0.062655
v -0.047063 0.003284 -0.073675
v -0.032418 0.003284 -0.081863
v -0.016526 0.003284 -0.086905
vn -0.252600 0.549800 -0.796200
vn 0.085500 0.551200 -0.830000
vn -0.408400 0.547400 -0.730500
vn -0.546400 0.544200 -0.636600
vn -0.661700 0.540900 -0.519200
vn -0.750700 0.537800 -0.383600
vn -0.811100 0.535500 -0.235200
vn -0.841600 0.534300 -0.079200
vn -0.841600 0.534300 0.079200
vn -0.811100 0.535500 0.235200
vn -0.750700 0.537800 0.383600
vn -0.661700 0.540900 0.519200
vn -0.546400 0.544200 0.636600
vn -0.408400 0.547400 0.730500
vn -0.252600 0.549800 0.796200
vn -0.085500 0.551200 0.830000
vn 0.085500 0.551200 0.830000
vn 0.252600 0.549800 0.796200
vn 0.408400 0.547400 0.730500
vn 0.546400 0.544200 0.636600
vn 0.661700 0.540900 0.519200
vn 0.750700 0.537800 0.383600
vn 0.811100 0.535500 0.235200
vn 0.841600 0.534300 0.079200
vn 0.841600 0.534300 -0.079200
vn 0.811100 0.535500 -0.235200
vn 0.750700 0.537800 -0.383600
vn 0.661700 0.540900 -0.519200
vn 0.546400 0.544200 -0.636600
vn 0.408400 0.547400 -0.730500
vn -0.085500 0.551200 -0.830000
vn 0.252600 0.549800 -0.796200
vn 0.000000 -1.000000 0.000000
s off
f 98//67 76//67 99//67
f 67//68 76//68 68//68
f 97//69 76//69 98//69
f 96//70 76//70 97//70
f 95//71 76//71 96//71
f 94//72 76//72 95//72
f 93//73 76//73 94//73
f 92//74 76//74 93//74
f 91//75 76//75 92//75
f 90//76 76//76 91//76
f 89//77 76//77 90//77
f 88//78 76//78 89//78
f 87//79 76//79 88//79
f 86//80 76//80 87//80
f 85//81 76//81 86//81
f 84//82 76//82 85//82
f 83//83 76//83 84//83
f 82//84 76//84 83//84
f 81//85 76//85 82//85
f 80//86 76//86 81//86
f 79//87 76//87 80//87
f 78//88 76//88 79//88
f 77//89 76//89 78//89
f 75//90 76//90 77//90
f 74//91 76//91 75//91
f 73//92 76//92 74//92
f 72//93 76//93 73//93
f 71//94 76//94 72//94
f 70//95 76//95 71//95
f 69//96 76//96 70//96
f 99//97 76//97 67//97
f 68//98 76//98 69//98
f 79//99 89//99 78//99
f 68//99 99//99 67//99
f 70//99 97//99 98//99
f 71//99 95//99 96//99
f 73//99 93//99 94//99
f 75//99 91//99 92//99
f 78//99 89//99 90//99
f 80//99 87//99 88//99
f 82//99 85//99 86//99
f 85//99 83//99 84//99
f 86//99 81//99 82//99
f 88//99 79//99 80//99
f 90//99 77//99 78//99
f 92//99 74//99 75//99
f 94//99 72//99 73//99
f 97//99 70//99 71//99
f 99//99 68//99 69//99
f 69//99 98//99 99//99
f 71//99 72//99 95//99
f 75//99 77//99 91//99
f 80//99 81//99 87//99
f 85//99 82//99 83//99
f 88//99 89//99 79//99
f 92//99 93//99 74//99
f 98//99 69//99 70//99
f 71//99 96//99 97//99
f 91//99 77//99 90//99
f 86//99 87//99 81//99
f 74//99 93//99 73//99
f 95//99 72//99 94//99
